<svg width="55" height="61" viewBox="0 0 55 61" fill="none" xmlns="http://www.w3.org/2000/svg">
<path d="M21.0625 51.9686C21.0625 53.7063 20.0879 55.3729 18.3532 56.6016C16.6185 57.8304 14.2658 58.5207 11.8125 58.5207C9.35925 58.5207 7.00647 57.8304 5.27176 56.6016C3.53705 55.3729 2.5625 53.7063 2.5625 51.9686C2.5625 50.2309 3.53705 48.5643 5.27176 47.3356C7.00647 46.1068 9.35925 45.4165 11.8125 45.4165C14.2658 45.4165 16.6185 46.1068 18.3532 47.3356C20.0879 48.5643 21.0625 50.2309 21.0625 51.9686ZM51.8958 41.5623C51.8958 43.3001 50.9213 44.9666 49.1866 46.1954C47.4519 47.4241 45.0991 48.1144 42.6458 48.1144C40.1926 48.1144 37.8398 47.4241 36.1051 46.1954C34.3704 44.9666 33.3958 43.3001 33.3958 41.5623C33.3958 39.8246 34.3704 38.1581 36.1051 36.9293C37.8398 35.7006 40.1926 35.0103 42.6458 35.0103C45.0991 35.0103 47.4519 35.7006 49.1866 36.9293C50.9213 38.1581 51.8958 39.8246 51.8958 41.5623Z" stroke="white" stroke-width="4.625"/>
<path d="M21.0625 51.9686V10.3436L51.8958 2.63525V41.5623" stroke="white" stroke-width="4.625" stroke-linejoin="round"/>
<path d="M21.0625 19.5936L51.8958 11.8853" stroke="white" stroke-width="4.625"/>
</svg>
