<svg width="60" height="50" viewBox="0 0 60 50" fill="none" xmlns="http://www.w3.org/2000/svg">
<path fill-rule="evenodd" clip-rule="evenodd" d="M60 5.91911C57.7954 6.92309 55.4217 7.60203 52.9319 7.90539C55.4746 6.34526 57.4256 3.87144 58.3448 0.92453C55.9641 2.3691 53.3333 3.42 50.523 3.98338C48.2832 1.53123 45.0819 0 41.539 0C34.7456 0 29.234 5.65185 29.234 12.6219C29.234 13.6114 29.3397 14.5721 29.551 15.4966C19.3203 14.9693 10.2518 9.94944 4.17679 2.30408C3.11674 4.17479 2.51099 6.34526 2.51099 8.65656C2.51099 13.0336 4.68393 16.8978 7.98733 19.1622C5.97289 19.1008 4.07113 18.5266 2.40887 17.5876V17.7429C2.40887 23.8606 6.65257 28.9635 12.2874 30.1192C11.2555 30.4153 10.1673 30.5634 9.04385 30.5634C8.25145 30.5634 7.47666 30.4875 6.72653 30.3395C8.29371 35.3521 12.8367 39.0033 18.225 39.1008C14.013 42.4883 8.70223 44.507 2.93713 44.507C1.94399 44.507 0.961436 44.4493 0 44.3337C5.44814 47.909 11.9211 50 18.8695 50C41.5143 50 53.8933 30.7692 53.8933 14.0881C53.8933 13.5392 53.8827 12.9902 53.8616 12.4521C56.2669 10.6717 58.3553 8.45071 60 5.91911Z" fill="#00AAEC"/>
</svg>
