<svg width="4" height="4" viewBox="0 0 75 102" fill="none" xmlns="http://www.w3.org/2000/svg">
<path d="M54.4249 76.2184V91.9562L62.1158 95.0945V72.0941C59.6999 73.7186 57.1233 75.1003 54.4249 76.2184ZM12.8842 72.0941V94.9375L20.5751 91.7992V76.2184C17.8767 75.1003 15.3001 73.7186 12.8842 72.0941ZM37.4999 79.5664C33.8682 79.5684 30.2505 79.1253 26.731 78.2474V102L37.4999 97.6058L48.2688 102V78.2474C44.7492 79.1252 41.1316 79.5683 37.4999 79.5664ZM37.4999 0C16.8224 0 0 16.4929 0 36.7655C0 57.0382 16.8224 73.5309 37.4999 73.5309C58.1774 73.5309 75 57.038 75 36.7654C75 16.4927 58.1776 0 37.4999 0ZM37.4999 65.762C21.1073 65.762 7.77072 52.6867 7.77072 36.6151C7.77072 20.5434 21.1073 7.4681 37.4999 7.4681C53.8925 7.4681 67.2291 20.5434 67.2291 36.6151C67.2291 52.6869 53.8927 65.762 37.4999 65.762ZM37.4999 13.5034C24.5017 13.5034 13.9266 23.8711 13.9266 36.6151C13.9266 49.3591 24.5017 59.7265 37.4999 59.7265C50.4981 59.7265 61.0732 49.3587 61.0732 36.6149C61.0732 23.8711 50.4983 13.5034 37.4999 13.5034ZM47.1886 50.1034L37.4999 45.1096L27.8114 50.1034L29.6617 39.5265L21.8235 32.0359L32.6558 30.4926L37.4999 20.8691L42.3442 30.4926L53.1765 32.0359L45.3383 39.5265L47.1886 50.1034Z" fill="white"/>
</svg>
