<svg width="55" height="70" viewBox="0 0 55 70" fill="none" xmlns="http://www.w3.org/2000/svg">
<path d="M50.7031 0.575684H45.5469V8.32285H50.7031V0.575684Z" fill="white"/>
<path d="M50.7031 25.0093H45.5469V69.7045H50.7031V25.0093Z" fill="white"/>
<path d="M52.0771 11.8984H44.1732C42.5593 11.8984 41.25 13.7143 41.25 15.9524V17.3794C41.25 19.6176 42.5593 21.4333 44.1731 21.4333H52.0769C53.6907 21.4333 54.9999 19.6176 54.9999 17.3794V15.9524C55 13.7143 53.6909 11.8984 52.0771 11.8984Z" fill="white"/>
<path d="M30.0765 0.575684H24.9203V41.7907H30.0765V0.575684Z" fill="white"/>
<path d="M30.0765 58.4771H24.9203V69.7043H30.0765V58.4771Z" fill="white"/>
<path d="M31.4504 45.3662H23.5465C21.9327 45.3662 20.6235 47.1819 20.6235 49.4202V50.8472C20.6235 53.0855 21.9327 54.9012 23.5465 54.9012H31.4504C33.0642 54.9012 34.3734 53.0855 34.3734 50.8472V49.4202C34.3734 47.1819 33.0642 45.3662 31.4504 45.3662Z" fill="white"/>
<path d="M9.45312 42.8872H4.29688V69.7043H9.45312V42.8872Z" fill="white"/>
<path d="M9.45312 0.575684H4.29688V26.2009H9.45312V0.575684Z" fill="white"/>
<path d="M10.8271 29.7764H2.92306C1.30926 29.7764 0 31.5922 0 33.8304V35.2573C0 37.4957 1.30926 39.3113 2.92306 39.3113H10.8269C12.4407 39.3113 13.7499 37.4957 13.7499 35.2575V33.8305C13.75 31.5922 12.4408 29.7764 10.8271 29.7764Z" fill="white"/>
</svg>
