<svg width="4" height="4" viewBox="0 0 102 102" fill="none" xmlns="http://www.w3.org/2000/svg">
<path fill-rule="evenodd" clip-rule="evenodd" d="M98.8125 41.4375H90.8438H87.6562H86.0625H82.875H76.5H73.3125H71.7188H68.5312H62.1562H58.9688H57.375H54.1875H44.625H43.0312H33.4688H30.2812H28.6875H25.5H19.125H15.9375H14.3438H11.1562H3.1875V7.96875C3.1875 5.33269 5.33269 3.1875 7.96875 3.1875H94.0312C96.6673 3.1875 98.8125 5.33269 98.8125 7.96875V41.4375ZM98.8125 94.0312C98.8125 96.6673 96.6673 98.8125 94.0312 98.8125H87.6562V76.5H89.25C90.1266 76.5 90.8438 75.7828 90.8438 74.9062V43.0312H98.8125V94.0312ZM86.0625 98.8125H73.3125V76.5H74.9062C75.7828 76.5 76.5 75.7828 76.5 74.9062V43.0312H82.875V74.9062C82.875 75.7828 83.5922 76.5 84.4688 76.5H86.0625V98.8125ZM71.7188 98.8125H58.9688V76.5H60.5625C61.4391 76.5 62.1562 75.7828 62.1562 74.9062V43.0312H68.5312V74.9062C68.5312 75.7828 69.2484 76.5 70.125 76.5H71.7188V98.8125ZM57.375 98.8125H44.625V43.0312H54.1875V74.9062C54.1875 75.7828 54.9047 76.5 55.7812 76.5H57.375V98.8125ZM43.0312 98.8125H30.2812V76.5H31.875C32.7516 76.5 33.4688 75.7828 33.4688 74.9062V43.0312H43.0312V98.8125ZM28.6875 98.8125H15.9375V76.5H17.5312C18.4078 76.5 19.125 75.7828 19.125 74.9062V43.0312H25.5V74.9062C25.5 75.7828 26.2172 76.5 27.0938 76.5H28.6875V98.8125ZM14.3438 98.8125H7.96875C5.33269 98.8125 3.1875 96.6673 3.1875 94.0312V43.0312H11.1562V74.9062C11.1562 75.7828 11.8734 76.5 12.75 76.5H14.3438V98.8125ZM94.0312 0H7.96875C3.56841 0 0 3.56841 0 7.96875V41.4375V92.4375V94.0312C0 98.4316 3.56841 102 7.96875 102H9.5625H14.3438H15.9375H28.6875H30.2812H43.0312H44.625H57.375H58.9688H71.7188H73.3125H86.0625H87.6562H92.4375H94.0312C98.4316 102 102 98.4316 102 94.0312V92.4375V41.4375V7.96875C102 3.56841 98.4316 0 94.0312 0ZM23.9062 12.75H27.0938C27.9703 12.75 28.6875 12.0328 28.6875 11.1562C28.6875 10.2797 27.9703 9.5625 27.0938 9.5625H23.9062C23.0297 9.5625 22.3125 10.2797 22.3125 11.1562C22.3125 12.0328 23.0297 12.75 23.9062 12.75ZM17.5312 12.75C18.411 12.75 19.125 12.036 19.125 11.1562C19.125 10.2765 18.411 9.5625 17.5312 9.5625C16.6515 9.5625 15.9375 10.2765 15.9375 11.1562C15.9375 12.036 16.6515 12.75 17.5312 12.75ZM11.1562 12.75C12.036 12.75 12.75 12.036 12.75 11.1562C12.75 10.2765 12.036 9.5625 11.1562 9.5625C10.2765 9.5625 9.5625 10.2765 9.5625 11.1562C9.5625 12.036 10.2765 12.75 11.1562 12.75ZM82.875 10.3594C82.875 9.9195 82.518 9.5625 82.0781 9.5625C81.6383 9.5625 81.2812 9.9195 81.2812 10.3594V20.7188H79.6875V23.9062H81.2812V34.2656C81.2812 34.7055 81.6383 35.0625 82.0781 35.0625C82.518 35.0625 82.875 34.7055 82.875 34.2656V23.9062H84.4688V20.7188H82.875V10.3594ZM92.4375 10.3594C92.4375 9.9195 92.0805 9.5625 91.6406 9.5625C91.2008 9.5625 90.8438 9.9195 90.8438 10.3594V20.7188H89.25V23.9062H90.8438V34.2656C90.8438 34.7055 91.2008 35.0625 91.6406 35.0625C92.0805 35.0625 92.4375 34.7055 92.4375 34.2656V23.9062H94.0312V20.7188H92.4375V10.3594ZM64.5469 30.2812H68.45C68.0802 32.0981 66.4705 33.4688 64.5469 33.4688C62.3507 33.4688 60.5625 31.6806 60.5625 29.4844C60.5625 27.2882 62.3507 25.5 64.5469 25.5C66.4705 25.5 68.0802 26.8706 68.45 28.6875H64.5469C64.107 28.6875 63.75 29.0445 63.75 29.4844C63.75 29.9242 64.107 30.2812 64.5469 30.2812ZM64.5469 23.9062C61.4662 23.9062 58.9688 26.4037 58.9688 29.4844C58.9688 32.5651 61.4662 35.0625 64.5469 35.0625C67.6276 35.0625 70.125 32.5651 70.125 29.4844C70.125 26.4037 67.6276 23.9062 64.5469 23.9062ZM50.2031 30.2812H54.1062C53.7365 32.0981 52.1268 33.4688 50.2031 33.4688C48.0069 33.4688 46.2188 31.6806 46.2188 29.4844C46.2188 27.2882 48.0069 25.5 50.2031 25.5C52.1268 25.5 53.7365 26.8706 54.1062 28.6875H50.2031C49.7632 28.6875 49.4062 29.0445 49.4062 29.4844C49.4062 29.9242 49.7632 30.2812 50.2031 30.2812ZM50.2031 23.9062C47.1224 23.9062 44.625 26.4037 44.625 29.4844C44.625 32.5651 47.1224 35.0625 50.2031 35.0625C53.2838 35.0625 55.7812 32.5651 55.7812 29.4844C55.7812 26.4037 53.2838 23.9062 50.2031 23.9062ZM65.3438 19.0437V15.1406C65.3438 14.7008 64.9867 14.3438 64.5469 14.3438C64.107 14.3438 63.75 14.7008 63.75 15.1406V19.0437C61.9331 18.674 60.5625 17.0643 60.5625 15.1406C60.5625 12.9444 62.3507 11.1562 64.5469 11.1562C66.7431 11.1562 68.5312 12.9444 68.5312 15.1406C68.5312 17.0643 67.1606 18.674 65.3438 19.0437ZM64.5469 9.5625C61.4662 9.5625 58.9688 12.0599 58.9688 15.1406C58.9688 18.2213 61.4662 20.7188 64.5469 20.7188C67.6276 20.7188 70.125 18.2213 70.125 15.1406C70.125 12.0599 67.6276 9.5625 64.5469 9.5625ZM33.4688 31.875C33.4688 32.7532 32.7532 33.4688 31.875 33.4688H12.75C11.8718 33.4688 11.1562 32.7532 11.1562 31.875V19.125C11.1562 18.2468 11.8718 17.5312 12.75 17.5312H31.875C32.7532 17.5312 33.4688 18.2468 33.4688 19.125V31.875ZM31.875 15.9375H12.75C10.9889 15.9375 9.5625 17.3639 9.5625 19.125V31.875C9.5625 33.6361 10.9889 35.0625 12.75 35.0625H31.875C33.6361 35.0625 35.0625 33.6361 35.0625 31.875V19.125C35.0625 17.3639 33.6361 15.9375 31.875 15.9375ZM50.2031 19.125C48.0069 19.125 46.2188 17.3368 46.2188 15.1406C46.2188 13.217 47.5894 11.6073 49.4062 11.2375V15.1406C49.4062 15.5805 49.7632 15.9375 50.2031 15.9375C50.643 15.9375 51 15.5805 51 15.1406V11.2375C52.8169 11.6073 54.1875 13.217 54.1875 15.1406C54.1875 17.3368 52.3993 19.125 50.2031 19.125ZM50.2031 9.5625C47.1224 9.5625 44.625 12.0599 44.625 15.1406C44.625 18.2213 47.1224 20.7188 50.2031 20.7188C53.2838 20.7188 55.7812 18.2213 55.7812 15.1406C55.7812 12.0599 53.2838 9.5625 50.2031 9.5625Z" fill="white"/>
</svg>
