<svg width="40" height="41" viewBox="0 0 40 41" fill="none" xmlns="http://www.w3.org/2000/svg">
<path d="M1 1C1 1 5.22222 1 5.8254 1C6.42857 1 7.63492 2.85611 7.63492 4.09428C7.63492 5.33245 8.84127 20.185 10.0476 23.2788C11.254 26.3726 13.6667 27.6103 14.873 28.2297C16.0794 28.849 28.746 28.2301 30.5556 28.2297C32.3651 28.2292 35.381 25.7547 35.9841 24.5165C36.5873 23.2783 39 11.521 39 10.2828C39 9.04466 37.7937 7.1881 35.9841 6.5697C34.1746 5.95131 12.4603 6.5697 12.4603 6.5697M16.6825 31.9428C14.3575 31.7593 12.2815 33.8893 12.4603 36.2748C12.6269 38.4964 14.5172 40.1588 16.6825 39.9879C18.6754 39.8306 20.1483 38.3195 20.3016 36.2748C20.4682 34.0532 18.8478 32.1137 16.6825 31.9428ZM29.9524 31.9428C27.6274 31.7593 25.5513 33.8893 25.7302 36.2748C25.8967 38.4964 27.7871 40.1588 29.9524 39.9879C31.9452 39.8306 33.4181 38.3195 33.5714 36.2748C33.738 34.0532 32.1177 32.1137 29.9524 31.9428Z" stroke="black" stroke-width="2" stroke-linecap="round"/>
</svg>
