<svg width="25" height="26" viewBox="0 0 25 26" fill="none" xmlns="http://www.w3.org/2000/svg">
<path d="M24.8843 11.001L24.7408 10.4323H12.8796V15.5671H19.974C19.5782 17.134 18.6782 18.5202 17.4179 19.5041C16.1578 20.488 14.6103 21.0127 13.0231 20.9944C10.9518 20.977 8.96176 20.1713 7.44315 18.7357C6.69664 17.9858 6.10259 17.0931 5.69497 16.1088C5.28737 15.1246 5.07422 14.0681 5.06773 12.9997C5.09182 10.854 5.92531 8.79994 7.39534 7.2637C8.89251 5.81809 10.881 5.02015 12.9434 5.03753C14.7096 5.05139 16.4102 5.72162 17.7261 6.92246L21.2335 3.2501C18.9218 1.14802 15.9297 -0.00938623 12.8318 0.000233392C11.1275 -0.0100849 9.43806 0.321824 7.8597 0.977031C6.28136 1.63222 4.84507 2.59787 3.6329 3.81883C1.32711 6.25994 0.0271229 9.50903 0.000419148 12.8975C-0.0262687 16.286 1.22238 19.5558 3.48942 22.0343C4.74543 23.3097 6.23826 24.3174 7.88065 24.998C9.52303 25.6789 11.282 26.0192 13.0549 25.9992C14.6626 26.0114 16.2561 25.6908 17.7387 25.0567C19.2212 24.4227 20.562 23.4885 21.6799 22.3106C23.8734 19.8522 25.06 16.6309 24.9959 13.3084C25.0131 12.5376 24.9758 11.7665 24.8843 11.001Z" fill="black"/>
</svg>
