<svg width="101" height="101" viewBox="0 0 101 101" fill="none" xmlns="http://www.w3.org/2000/svg">
<path d="M21.0416 75.7498V50.4998C21.0416 34.2304 34.2305 21.0415 50.5 21.0415C66.7694 21.0415 79.9583 34.2304 79.9583 50.4998V75.7498M21.0416 54.7082H12.625C10.3008 54.7082 8.41663 56.5922 8.41663 58.9165V75.7498C8.41663 78.0741 10.3008 79.9582 12.625 79.9582H21.0416V54.7082ZM79.9583 54.7082H88.3749C90.6992 54.7082 92.5833 56.5922 92.5833 58.9165V75.7498C92.5833 78.0741 90.6992 79.9582 88.3749 79.9582H79.9583V54.7082Z" stroke="white" stroke-width="5.43011" stroke-linecap="round" stroke-linejoin="round"/>
<path d="M33.6666 67.3335H42.0833L46.2916 54.7085L54.7083 79.9585L58.9166 67.3335H67.3333" stroke="white" stroke-width="5.43011" stroke-linecap="round" stroke-linejoin="round"/>
</svg>
