<svg width="4" height="4" viewBox="0 0 101 73" fill="none" xmlns="http://www.w3.org/2000/svg">
<path fill-rule="evenodd" clip-rule="evenodd" d="M8.77525 1.25539C7.19907 -0.0698729 4.98058 -0.373762 3.09453 0.477105C1.20849 1.32802 0 3.178 0 5.21433V67.7857C0 69.8218 1.20849 71.6719 3.09453 72.5228C4.98058 73.3738 7.19907 73.0698 8.77525 71.7449L45.9858 40.4592C47.1638 39.4685 47.8421 38.022 47.8421 36.5C47.8421 34.9779 47.1638 33.5315 45.9858 32.5413L8.77525 1.25539ZM34.3581 36.5L10.6316 56.4488V16.5513L34.3581 36.5ZM61.9332 1.25539C60.3571 -0.0698729 58.1383 -0.373762 56.2522 0.477105C54.3662 1.32802 53.1579 3.178 53.1579 5.21433V67.7857C53.1579 69.8218 54.3662 71.6719 56.2522 72.5228C58.1383 73.3738 60.3571 73.0698 61.9332 71.7449L99.1437 40.4592C100.322 39.4685 101 38.022 101 36.5C101 34.9779 100.322 33.5315 99.1437 32.5413L61.9332 1.25539ZM87.516 36.5L63.7895 56.4488V16.5513L87.516 36.5Z" fill="white"/>
</svg>
