<svg width="93" height="93" viewBox="0 0 93 93" fill="none" xmlns="http://www.w3.org/2000/svg">
<path d="M90 43.6231L48.9915 82.2993C43.9677 87.0373 37.1538 89.6992 30.049 89.6992C22.9442 89.6992 16.1303 87.0373 11.1065 82.2993C6.08261 77.5613 3.26025 71.1349 3.26025 64.434C3.26025 57.7336 6.08261 51.3072 11.1065 46.5692L52.1151 7.89277C55.4643 4.73402 60.0069 2.95947 64.7434 2.95947C69.4799 2.95947 74.0225 4.73402 77.3717 7.89277C80.7209 11.0515 82.6026 15.3357 82.6026 19.8029C82.6026 24.27 80.7209 28.5542 77.3717 31.7129L36.3185 70.3889C34.6439 71.9686 32.3726 72.8559 30.0044 72.8559C27.6361 72.8559 25.3648 71.9686 23.6902 70.3889C22.0156 68.8097 21.0748 66.6678 21.0748 64.434C21.0748 62.2007 22.0156 60.0582 23.6902 58.479L61.5749 22.7909" stroke="black" stroke-width="4.88552" stroke-linecap="round" stroke-linejoin="round"/>
</svg>
